<?xml version="1.0" encoding="UTF-8"?>
<svg width="179px" height="21px" viewBox="0 0 179 21" version="1.1" xmlns="http://www.w3.org/2000/svg" xmlns:xlink="http://www.w3.org/1999/xlink">
    <title>DesignCraft.me Copy 2</title>
    <g id="Page-1" stroke="none" stroke-width="1" fill="none" fill-rule="evenodd">
        <g id="DesignCraft.me-Copy-2" transform="translate(0.1076, 0.72)" fill="#FFF2ED" fill-rule="nonzero">
            <path d="M0,15.251553 L5.60261129,15.251553 C9.60744084,15.251553 13.7575233,14.2347828 13.7575233,7.92665745 C13.7575233,1.63928256 9.60744084,0.622512365 5.60261129,0.622512365 L0,0.622512365 L0,15.251553 Z M3.77657502,11.931487 L3.77657502,3.9218279 L5.60261129,3.9218279 C8.09266075,3.9218279 9.98094826,4.00482955 9.98094826,7.92665745 C9.98094826,11.8484854 8.11341116,11.931487 5.60261129,11.931487 L3.77657502,11.931487 Z" id="Shape"></path>
            <path d="M15.269339,9.96019785 C15.269339,13.238763 17.4688827,15.4590571 21.0172032,15.4590571 C24.2542675,15.4590571 26.3085583,13.8612753 26.5990641,11.5372292 L23.071494,11.5372292 C22.8639899,12.3464952 22.116975,12.7822539 21.0172032,12.7822539 C19.7306776,12.7822539 18.9629124,12.0559895 18.8384099,10.7487135 L26.5783137,10.7487135 L26.5783137,9.81494496 C26.5783137,6.51562942 24.482522,4.54434027 20.8511999,4.54434027 C17.5933852,4.54434027 15.269339,6.57788066 15.269339,9.96019785 Z M18.8384099,8.92267724 C18.9214116,7.76065415 19.7306776,7.11739138 20.954952,7.11739138 C22.1999767,7.11739138 23.0092428,7.76065415 23.1129948,8.92267724 L18.8384099,8.92267724 Z" id="Shape"></path>
            <path d="M33.6304894,15.4590571 C37.0543075,15.4590571 38.69359,14.3177844 38.69359,12.284244 C38.69359,10.271454 37.0958083,9.46218795 35.4150249,9.06793012 L32.9664763,8.48691858 C32.3024631,8.32091528 31.9289557,8.07191034 31.9289557,7.69840292 C31.9289557,7.28339467 32.3854647,7.03438973 33.2154812,7.03438973 C34.4397555,7.03438973 34.9792662,7.4908988 34.9792662,8.38316652 L38.5275867,8.38316652 C38.5275867,5.83086582 36.4732959,4.54434027 33.1947308,4.54434027 C30.185921,4.54434027 28.3806352,5.6233617 28.3806352,7.65690209 C28.3806352,9.52443919 29.9161657,10.3129549 31.0366879,10.6034606 L34.3360035,11.4957283 C34.8755142,11.6409812 35.1245191,11.8692358 35.1245191,12.2219928 C35.1245191,12.7200027 34.7302613,12.9482572 33.7134911,12.9482572 C32.2609622,12.9482572 31.6384499,12.4917481 31.6384499,11.4542275 L28.069379,11.4542275 C28.069379,14.1102803 29.9576665,15.4590571 33.6304894,15.4590571 Z" id="Path"></path>
            <path d="M40.267657,15.251553 L49.4600896,15.251553 L49.4600896,12.1182407 L46.4927807,12.1182407 L46.4927807,6.49487901 C46.4927807,5.33285593 45.8287675,4.75184439 44.6874948,4.75184439 L40.6411644,4.75184439 L40.6411644,7.88515663 L43.2142155,7.88515663 L43.2142155,12.1182407 L40.267657,12.1182407 L40.267657,15.251553 Z M42.5294519,2.05429081 C42.5294519,3.27856512 43.338718,3.83882625 44.6044931,3.83882625 C45.8702683,3.83882625 46.7417856,3.27856512 46.7417856,2.05429081 C46.7417856,0.850766899 45.8702683,0.269755358 44.6044931,0.269755358 C43.338718,0.269755358 42.5294519,0.850766899 42.5294519,2.05429081 Z" id="Shape"></path>
            <path d="M55.3709927,15.4590571 C57.549786,15.4590571 58.7118091,14.4422869 59.3550719,13.2595134 L59.3550719,16.5173281 L52.113178,16.5173281 L52.113178,19.6506403 L61.0773561,19.6506403 C62.2393792,19.6506403 62.9033923,19.0696288 62.9033923,17.8453545 L62.9033923,4.75184439 L59.3550719,4.75184439 L59.3550719,6.72313355 C58.7740603,5.64411211 57.6535381,4.54434027 55.3709927,4.54434027 C51.9679251,4.54434027 50.5361467,7.03438973 50.5361467,9.98094826 C50.5361467,12.9482572 51.9679251,15.4590571 55.3709927,15.4590571 Z M54.0844672,9.98094826 C54.0844672,8.36241611 54.9974853,7.67765251 56.7405199,7.67765251 C58.4628041,7.67765251 59.3343214,8.38316652 59.3343214,9.98094826 C59.3343214,11.6202308 58.4628041,12.3257448 56.7405199,12.3257448 C54.9974853,12.3257448 54.0844672,11.5994804 54.0844672,9.98094826 Z" id="Shape"></path>
            <path d="M64.9754692,15.251553 L68.5237897,15.251553 L68.5237897,11.4749779 C68.5237897,8.50766899 69.6650624,7.67765251 71.408097,7.67765251 C72.9851283,7.67765251 73.4831382,8.36241611 73.4831382,10.2507036 L73.4831382,15.251553 L77.0729595,15.251553 L77.0729595,9.69044249 C77.0729595,6.39112695 75.433677,4.54434027 72.6946225,4.54434027 C70.4328276,4.54434027 69.0633004,5.68561294 68.5237897,7.22114344 L68.5237897,4.75184439 L64.9754692,4.75184439 L64.9754692,15.251553 Z" id="Path"></path>
            <path d="M86.1171749,15.5420587 C90.3087581,15.5420587 93.0893134,13.2802638 93.525072,9.58669043 L89.6447449,9.58669043 C89.3334888,11.1637218 87.984712,12.1182407 86.1379253,12.1182407 C83.8761304,12.1182407 82.2575982,10.8317152 82.2575982,7.92665745 C82.2575982,5.04235016 83.8761304,3.7558246 86.1379253,3.7558246 C87.984712,3.7558246 89.3334888,4.68959315 89.6447449,6.26662448 L93.525072,6.26662448 C93.0893134,2.59380152 90.3087581,0.332006595 86.1171749,0.332006595 C81.3238297,0.332006595 78.3565207,3.61057172 78.3565207,7.92665745 C78.3565207,12.2634936 81.3238297,15.5420587 86.1171749,15.5420587 Z" id="Path"></path>
            <path d="M95.3273935,6.55713025 L95.3273935,15.251553 L98.8964644,15.251553 L98.8964644,7.88515663 L104.20857,7.88515663 L104.20857,4.75184439 L97.1741802,4.75184439 C95.9914067,4.75184439 95.3273935,5.37435675 95.3273935,6.55713025 Z" id="Path"></path>
            <path d="M105.056373,12.3879961 C105.056373,13.4670175 105.616634,15.4590571 108.9367,15.4590571 C111.98701,15.4590571 113.107532,14.1517811 113.584792,12.5955002 L113.584792,13.6537712 C113.584792,14.6705414 114.186554,15.251553 115.203324,15.251553 L117.610372,15.251553 L117.610372,12.1182407 L116.095592,12.1182407 L116.095592,9.23393342 C116.095592,5.85161623 113.626293,4.54434027 110.721235,4.54434027 C107.836928,4.54434027 105.367629,5.97611871 105.305377,8.73592353 L108.646194,8.73592353 C108.687695,7.80215498 109.289457,7.26264426 110.575982,7.26264426 C111.98701,7.26264426 112.526521,7.69840292 112.526521,8.79817476 L109.330957,9.15093177 C106.114644,9.48293836 105.056373,10.5619598 105.056373,12.3879961 Z M108.542442,11.7862341 C108.542442,11.2052226 109.061202,11.1014705 109.994971,10.9562176 L112.526521,10.5827102 C112.526521,11.8484854 111.322997,12.637001 109.849718,12.637001 C109.164954,12.637001 108.542442,12.4709977 108.542442,11.7862341 Z" id="Shape"></path>
            <path d="M118.935434,7.88515663 L120.885973,7.88515663 L120.885973,12.1182407 L118.935434,12.1182407 L118.935434,15.251553 L127.484604,15.251553 L127.484604,12.1182407 L124.455044,12.1182407 L124.455044,7.88515663 L127.484604,7.88515663 L127.484604,4.75184439 L124.455044,4.75184439 L124.455044,4.66884274 C124.455044,3.54832048 124.890802,3.11256183 125.824571,3.11256183 L128.065615,3.11256183 L128.065615,0 L126.28108,0 C122.608257,0 120.885973,1.61853215 120.885973,4.54434027 L120.885973,4.75184439 L118.935434,4.75184439 L118.935434,7.88515663 Z" id="Path"></path>
            <path d="M138.749113,12.1182407 L134.848036,12.1389911 L134.848036,7.88515663 L138.334105,7.88515663 L138.334105,4.75184439 L134.848036,4.75184439 L134.848036,1.76378504 L131.299715,2.88430729 L131.299715,4.75184439 L128.768165,4.75184439 L128.768165,7.88515663 L131.299715,7.88515663 L131.299715,13.4255167 C131.299715,14.6082902 131.942978,15.251553 133.105001,15.251553 L138.749113,15.251553 L138.749113,12.1182407 Z" id="Path"></path>
            <path d="M142.916982,15.4590571 C144.369511,15.4590571 145.34478,14.4007861 145.34478,13.1350109 C145.34478,11.9107366 144.369511,10.873216 142.916982,10.873216 C141.422952,10.873216 140.530684,11.9107366 140.530684,13.1350109 C140.530684,14.4007861 141.422952,15.4590571 142.916982,15.4590571 Z" id="Path"></path>
            <path d="M147.209353,15.251553 L150.757673,15.251553 L150.757673,11.7239829 C150.757673,9.10943095 151.068929,7.67765251 152.894966,7.67765251 C153.994737,7.67765251 154.305994,8.19641281 154.305994,10.167702 L154.305994,15.1893017 L154.285243,15.251553 L157.854314,15.251553 L157.854314,11.7239829 C157.854314,9.10943095 158.16557,7.67765251 159.991607,7.67765251 C161.091378,7.67765251 161.402635,8.19641281 161.402635,10.167702 L161.402635,15.251553 L164.950955,15.251553 L164.950955,9.96019785 C164.950955,6.90988725 164.18319,4.54434027 161.112129,4.54434027 C159.037088,4.54434027 157.854314,5.58186088 157.273303,6.86838643 C156.858294,5.47810881 155.986777,4.54434027 154.243742,4.54434027 C152.272453,4.54434027 151.255683,5.68561294 150.757673,6.9928889 L150.757673,4.75184439 L147.209353,4.75184439 L147.209353,15.251553 Z" id="Path"></path>
            <path d="M166.670275,9.96019785 C166.670275,13.238763 168.869819,15.4590571 172.418139,15.4590571 C175.655203,15.4590571 177.709494,13.8612753 178,11.5372292 L174.47243,11.5372292 C174.264926,12.3464952 173.517911,12.7822539 172.418139,12.7822539 C171.131614,12.7822539 170.363848,12.0559895 170.239346,10.7487135 L177.97925,10.7487135 L177.97925,9.81494496 C177.97925,6.51562942 175.883458,4.54434027 172.252136,4.54434027 C168.994321,4.54434027 166.670275,6.57788066 166.670275,9.96019785 Z M170.239346,8.92267724 C170.322347,7.76065415 171.131614,7.11739138 172.355888,7.11739138 C173.600913,7.11739138 174.410179,7.76065415 174.513931,8.92267724 L170.239346,8.92267724 Z" id="Shape"></path>
        </g>
    </g>
</svg>