<svg width="200" height="200" viewBox="0 0 200 200" fill="none" xmlns="http://www.w3.org/2000/svg">
<g clip-path="url(#clip0_41_9)">
<path fill-rule="evenodd" clip-rule="evenodd" d="M148 63C148 85.6437 129.644 104 107 104C84.3563 104 66 85.6437 66 63C66 40.3563 84.3563 22 107 22C129.644 22 148 40.3563 148 63ZM167.5 145C178.546 145 187.5 136.046 187.5 125C187.5 113.954 178.546 105 167.5 105C156.454 105 147.5 113.954 147.5 125C147.5 136.046 156.454 145 167.5 145ZM131.5 189C133.056 177 142.567 153 168.167 153C193.767 153 202.389 177 203.5 189H131.5ZM66.5 125C66.5 136.046 57.5457 145 46.5 145C35.4543 145 26.5 136.046 26.5 125C26.5 113.954 35.4543 105 46.5 105C57.5457 105 66.5 113.954 66.5 125ZM47.1667 153C21.5667 153 12.0556 177 10.5 189H82.5C81.3889 177 72.7667 153 47.1667 153Z" fill="#FFF2ED"/>
<path fill-rule="evenodd" clip-rule="evenodd" d="M100 19C79.5655 19 63 35.5655 63 56C63 76.4345 79.5655 93 100 93C120.435 93 137 76.4345 137 56C137 35.5655 120.435 19 100 19ZM55 56C55 31.1472 75.1472 11 100 11C124.853 11 145 31.1472 145 56C145 80.8528 124.853 101 100 101C75.1472 101 55 80.8528 55 56ZM120.147 40.0006C121.803 41.4623 121.961 43.99 120.499 45.6465L97.9994 71.1465C97.2888 71.9518 96.2842 72.4376 95.2117 72.4944C94.1391 72.5512 93.0888 72.1744 92.2971 71.4486L80.2971 60.4486C78.6686 58.9558 78.5586 56.4256 80.0514 54.7971C81.5442 53.1686 84.0744 53.0586 85.7029 54.5514L94.6978 62.7967L114.501 40.3535C115.962 38.697 118.49 38.539 120.147 40.0006ZM39.5001 101.5C30.6635 101.5 23.5001 108.663 23.5001 117.5C23.5001 126.337 30.6635 133.5 39.5001 133.5C48.3366 133.5 55.5001 126.337 55.5001 117.5C55.5001 108.663 48.3366 101.5 39.5001 101.5ZM15.5001 117.5C15.5001 104.245 26.2452 93.5 39.5001 93.5C52.7549 93.5 63.5001 104.245 63.5001 117.5C63.5001 130.755 52.7549 141.5 39.5001 141.5C26.2452 141.5 15.5001 130.755 15.5001 117.5ZM8.34685 179.5H70.8351C69.7717 174.525 67.5676 168.521 63.7899 163.364C58.9241 156.722 51.4945 151.5 40.1667 151.5C28.8227 151.5 21.1427 156.74 15.9866 163.44C12.0333 168.576 9.60739 174.54 8.34685 179.5ZM9.64681 158.56C16.0351 150.26 25.9107 143.5 40.1667 143.5C54.4389 143.5 64.1204 150.278 70.2435 158.636C76.2549 166.842 78.876 176.576 79.483 183.131C79.5867 184.251 79.2139 185.364 78.456 186.195C77.698 187.026 76.625 187.5 75.5 187.5H3.50002C2.34952 187.5 1.25473 187.005 0.495288 186.14C-0.26415 185.276 -0.614688 184.127 -0.466787 182.986C0.382393 176.435 3.3597 166.729 9.64681 158.56ZM160.5 101.5C151.663 101.5 144.5 108.663 144.5 117.5C144.5 126.337 151.663 133.5 160.5 133.5C169.337 133.5 176.5 126.337 176.5 117.5C176.5 108.663 169.337 101.5 160.5 101.5ZM136.5 117.5C136.5 104.245 147.245 93.5 160.5 93.5C173.755 93.5 184.5 104.245 184.5 117.5C184.5 130.755 173.755 141.5 160.5 141.5C147.245 141.5 136.5 130.755 136.5 117.5ZM129.347 179.5H191.835C190.772 174.525 188.568 168.521 184.79 163.364C179.924 156.722 172.494 151.5 161.167 151.5C149.823 151.5 142.143 156.74 136.987 163.44C133.033 168.576 130.607 174.54 129.347 179.5ZM130.647 158.56C137.035 150.26 146.911 143.5 161.167 143.5C175.439 143.5 185.12 150.278 191.243 158.636C197.255 166.842 199.876 176.576 200.483 183.131C200.587 184.251 200.214 185.364 199.456 186.195C198.698 187.026 197.625 187.5 196.5 187.5H124.5C123.35 187.5 122.255 187.005 121.495 186.14C120.736 185.276 120.385 184.127 120.533 182.986C121.382 176.435 124.36 166.729 130.647 158.56ZM100 103C102.209 103 104 104.791 104 107V134.204L125.157 153.01C126.809 154.478 126.957 157.006 125.49 158.657C124.022 160.309 121.494 160.457 119.843 158.99L99.9429 141.301L79.0925 159.046C77.4101 160.478 74.8857 160.275 73.4539 158.592C72.0221 156.91 72.2252 154.386 73.9075 152.954L96 134.152V107C96 104.791 97.7909 103 100 103Z" fill="#2C1338"/>
</g>
<defs>
<clipPath id="clip0_41_9">
<rect width="200" height="200" fill="white"/>
</clipPath>
</defs>
</svg>
