<svg width="200" height="200" viewBox="0 0 200 200" fill="none" xmlns="http://www.w3.org/2000/svg">
<path fill-rule="evenodd" clip-rule="evenodd" d="M156.391 25L159.188 30.8482C159.39 31.2694 159.732 31.6069 160.156 31.8021L165.782 34.3911L160.503 37.2297C160.174 37.4064 159.902 37.6715 159.716 37.995L156.391 43.7822L153.293 38.0423C153.102 37.6889 152.809 37.4012 152.453 37.2165L147 34.3911L152.402 31.7881C152.79 31.6011 153.108 31.2936 153.307 30.9115L156.391 25ZM26 98.5L70.9057 49.6465C71.2845 49.2345 71.8185 49 72.3782 49H88H128H142.609C143.176 49 143.717 49.241 144.096 49.6629L188 98.5L109 191L26 98.5ZM177.332 48.0578L175.391 44L173.241 48.1211C173.042 48.5032 172.724 48.8107 172.336 48.9978L168.587 50.8044L172.387 52.7735C172.743 52.9582 173.036 53.246 173.227 53.5993L175.391 57.6089L177.722 53.552C177.907 53.2285 178.18 52.9634 178.509 52.7867L182.196 50.8044L178.3 49.0117C177.876 48.8165 177.533 48.4791 177.332 48.0578Z" fill="#FFF2ED"/>
<path fill-rule="evenodd" clip-rule="evenodd" d="M149.426 16.0003C150.183 16.0135 150.868 16.4536 151.195 17.137L153.992 22.9852L159.618 25.5743C160.307 25.8914 160.758 26.571 160.781 27.3291C160.805 28.0873 160.397 28.7935 159.729 29.1526L154.45 31.9912L151.125 37.7785C150.764 38.4076 150.09 38.7917 149.365 38.7821C148.639 38.7725 147.976 38.3707 147.631 37.7322L144.533 31.9923L139.08 29.1669C138.407 28.8183 137.989 28.1196 138 27.3621C138.011 26.6045 138.449 25.9182 139.132 25.5894L144.534 22.9864L147.618 17.0749C147.968 16.4032 148.668 15.9871 149.426 16.0003ZM150.384 24.7111L149.313 22.4728L148.08 24.8366C147.682 25.6008 147.047 26.2157 146.27 26.5899L144.473 27.4561L146.373 28.4407C147.086 28.8102 147.671 29.3856 148.053 30.0922L149.445 32.6725L150.981 29.9987C151.353 29.3517 151.898 28.8215 152.556 28.4682L154.3 27.5301L152.32 26.6189C151.472 26.2285 150.787 25.5536 150.384 24.7111ZM66.2563 46L27.3681 88.307L56.9073 91.2245L75.0816 46H66.2563ZM83.7034 46L65.4184 91.5H136.133L118.273 46H83.7034ZM126.867 46L144.614 91.211L172.766 88.3236L134.717 46H126.867ZM171.471 96.4983L144.697 99.2443L117.237 160L171.471 96.4983ZM101.89 174.531L135.802 99.5H65.8582L101.89 174.531ZM56.8681 99.2595L28.8542 96.4927L86.2654 160.475L56.8681 99.2595ZM60.9608 39.9396C62.097 38.7035 63.6992 38 65.3782 38H81H121H135.609C137.311 38 138.933 38.7229 140.071 39.9887L183.975 88.8258C185.316 90.3177 185.345 92.5723 184.042 94.0977L105.042 186.598C104.293 187.475 103.202 187.986 102.049 188C100.896 188.014 99.7929 187.53 99.0228 186.671L16.0228 94.1714C14.6468 92.6379 14.6608 90.31 16.0551 88.7931L60.9608 39.9396ZM170.195 36.137C169.868 35.4536 169.183 35.0135 168.426 35.0003C167.668 34.9871 166.968 35.4032 166.618 36.0749L164.468 40.1961L160.718 42.0027C160.036 42.3316 159.598 43.0179 159.587 43.7754C159.576 44.533 159.994 45.2317 160.667 45.5802L164.467 47.5493L166.631 51.5589C166.976 52.1974 167.639 52.5991 168.365 52.6087C169.09 52.6183 169.764 52.2343 170.125 51.6051L172.456 47.5482L176.143 45.566C176.811 45.2068 177.218 44.5006 177.195 43.7424C177.171 42.9843 176.721 42.3047 176.032 41.9876L172.136 40.1949L170.195 36.137ZM168.014 42.0462L168.313 41.4728L168.528 41.9208C168.931 42.7632 169.616 43.4382 170.464 43.8286L170.714 43.9435L170.562 44.0252C169.904 44.3785 169.359 44.9087 168.987 45.5558L168.445 46.4992L167.987 45.6493C167.605 44.9426 167.02 44.3672 166.307 43.9977L166.059 43.8694L166.204 43.7995C166.981 43.4254 167.616 42.8104 168.014 42.0462Z" fill="#2C1338"/>
</svg>
