<svg width="200" height="200" viewBox="0 0 200 200" fill="none" xmlns="http://www.w3.org/2000/svg">
<path fill-rule="evenodd" clip-rule="evenodd" d="M164.693 27.3748C166.875 27.7194 168.365 29.7676 168.02 31.9497L165.899 45.3847C165.633 47.0673 164.331 48.397 162.655 48.698L148.866 51.1729C146.692 51.5631 144.613 50.1168 144.222 47.9424C143.832 45.768 145.278 43.689 147.453 43.2987L153.229 42.262C122.592 17.2461 77.3784 19.0219 48.811 47.5893C18.3501 78.0502 18.3501 127.437 48.811 157.898C50.3731 159.46 50.3731 161.993 48.811 163.555C47.2489 165.117 44.7162 165.117 43.1542 163.555C9.56906 129.97 9.56906 75.5176 43.1542 41.9325C74.9251 10.1615 125.37 8.44537 159.158 36.784L160.118 30.702C160.463 28.5199 162.511 27.0303 164.693 27.3748ZM84.465 90.2247C85.2197 82.9967 91.0651 77.8095 96.8555 77.8559L100.397 77.8842V102.82L94.2331 102.771C88.4521 102.712 83.7112 97.444 84.465 90.2247ZM93.2346 110.725C82.4627 110.53 75.331 101.024 76.4653 90.1607C77.6062 79.2341 86.8092 69.8121 97.6863 69.8991L100.397 69.9208V64.8413C100.397 62.6321 102.188 60.8413 104.397 60.8413C106.606 60.8413 108.397 62.6321 108.397 64.8413V69.9849L123.905 70.1089C126.114 70.1266 127.718 71.9221 127.489 74.1193C127.26 76.3165 125.283 78.0834 123.074 78.0657L108.397 77.9482V102.884L119.529 102.973C130.406 103.06 137.628 112.614 136.487 123.54C135.346 134.467 126.143 143.889 115.266 143.802L108.397 143.747V147.765C108.397 149.974 106.606 151.765 104.397 151.765C102.188 151.765 100.397 149.974 100.397 147.765L100.397 143.683L89.8022 143.598C87.5931 143.58 85.9883 141.785 86.2177 139.588C86.4471 137.39 88.4239 135.624 90.633 135.641L100.397 135.719V110.784L93.4232 110.728L93.394 110.727L93.2345 110.726L93.2346 110.725ZM108.397 110.848L118.698 110.93C124.489 110.976 129.242 116.248 128.487 123.476C127.732 130.704 121.887 135.891 116.097 135.845L108.397 135.783L108.397 110.848ZM82.5264 177.196C80.3912 176.629 78.2008 177.9 77.6338 180.035C77.0668 182.17 78.3381 184.361 80.4733 184.928C84.1062 185.892 87.7895 186.615 91.4977 187.096C93.6885 187.381 95.6949 185.835 95.9791 183.644C96.2634 181.453 94.7178 179.447 92.527 179.163C89.1623 178.726 85.8211 178.07 82.5264 177.196ZM112.872 179.143C110.682 179.431 109.141 181.441 109.429 183.631C109.718 185.821 111.727 187.363 113.918 187.074C121.306 186.1 128.594 184.167 135.58 181.272C137.62 180.427 138.589 178.087 137.744 176.046C136.898 174.005 134.558 173.036 132.517 173.882C126.185 176.505 119.576 178.259 112.872 179.143ZM150.116 163.7C148.365 165.047 148.038 167.559 149.385 169.31C150.733 171.06 153.244 171.387 154.995 170.04C157.928 167.783 160.748 165.311 163.433 162.626C165.522 160.537 167.482 158.366 169.313 156.124C170.71 154.412 170.455 151.893 168.743 150.496C167.032 149.099 164.512 149.354 163.115 151.065C161.455 153.099 159.675 155.071 157.777 156.969C155.336 159.409 152.776 161.653 150.116 163.7ZM171.848 137.804C170.828 139.764 171.591 142.179 173.55 143.199C175.51 144.218 177.925 143.456 178.945 141.496C181.67 136.257 183.82 130.798 185.394 125.211C185.993 123.085 184.755 120.875 182.628 120.276C180.502 119.677 178.293 120.915 177.694 123.042C176.266 128.108 174.318 133.057 171.848 137.804ZM180.424 107.393C180.267 109.596 181.926 111.51 184.129 111.667C186.333 111.824 188.247 110.165 188.404 107.961C188.819 102.13 188.642 96.2639 187.874 90.4612C187.584 88.2712 185.573 86.731 183.383 87.0211C181.193 87.3112 179.653 89.3217 179.943 91.5117C180.641 96.7771 180.801 102.1 180.424 107.393ZM176.268 76.0602C176.995 78.146 179.276 79.247 181.362 78.5194C183.448 77.7917 184.549 75.5109 183.821 73.425C182.862 70.6748 181.758 67.9633 180.511 65.3024C179.574 63.3021 177.192 62.4405 175.192 63.3781C173.191 64.3157 172.33 66.6973 173.267 68.6976C174.398 71.1092 175.398 73.5669 176.268 76.0602Z" fill="#FFF2ED"/>
<path fill-rule="evenodd" clip-rule="evenodd" d="M157.693 20.3748C159.875 20.7194 161.365 22.7676 161.02 24.9497L158.899 38.3847C158.633 40.0673 157.331 41.397 155.655 41.698L141.866 44.1729C139.692 44.5631 137.613 43.1168 137.222 40.9424C136.832 38.768 138.278 36.689 140.453 36.2987L146.229 35.262C115.592 10.2461 70.3784 12.0219 41.811 40.5893C11.3501 71.0502 11.3501 120.437 41.811 150.898C43.3731 152.46 43.3731 154.993 41.811 156.555C40.2489 158.117 37.7162 158.117 36.1541 156.555C2.56906 122.97 2.56906 68.5176 36.1541 34.9325C67.9251 3.16151 118.37 1.44537 152.158 29.784L153.118 23.702C153.463 21.5199 155.511 20.0303 157.693 20.3748ZM77.465 83.2247C78.2197 75.9967 84.0651 70.8095 89.8555 70.8559L93.3973 70.8842V95.8201L87.2331 95.7708C81.4521 95.7119 76.7112 90.444 77.465 83.2247ZM86.2346 103.725C75.4627 103.53 68.331 94.024 69.4653 83.1607C70.6062 72.2341 79.8092 62.8121 90.6863 62.8991L93.3973 62.9208V57.8413C93.3973 55.6321 95.1882 53.8413 97.3973 53.8413C99.6064 53.8413 101.397 55.6321 101.397 57.8413V62.9849L116.905 63.1089C119.114 63.1266 120.718 64.9221 120.489 67.1193C120.26 69.3165 118.283 71.0834 116.074 71.0657L101.397 70.9482V95.8841L112.529 95.9732C123.406 96.0603 130.628 105.614 129.487 116.54C128.346 127.467 119.143 136.889 108.266 136.802L101.397 136.747V140.765C101.397 142.974 99.6064 144.765 97.3973 144.765C95.1882 144.765 93.3973 142.974 93.3973 140.765V136.683L82.8022 136.598C80.5931 136.58 78.9883 134.785 79.2177 132.588C79.4471 130.39 81.4239 128.624 83.633 128.641L93.3973 128.719V103.784L86.4232 103.728L86.394 103.727L86.2345 103.726L86.2346 103.725ZM101.397 103.848L111.698 103.93C117.489 103.976 122.242 109.248 121.487 116.476C120.732 123.704 114.887 128.891 109.097 128.845L101.397 128.783V103.848ZM75.5264 170.196C73.3912 169.629 71.2008 170.9 70.6338 173.035C70.0668 175.17 71.3381 177.361 73.4733 177.928C77.1062 178.892 80.7895 179.615 84.4977 180.096C86.6885 180.381 88.6949 178.835 88.9791 176.644C89.2634 174.453 87.7178 172.447 85.527 172.163C82.1623 171.726 78.8211 171.07 75.5264 170.196ZM105.872 172.143C103.682 172.431 102.141 174.441 102.429 176.631C102.718 178.821 104.727 180.363 106.918 180.074C114.306 179.1 121.594 177.167 128.58 174.272C130.62 173.427 131.589 171.087 130.744 169.046C129.898 167.005 127.558 166.036 125.517 166.882C119.185 169.505 112.576 171.259 105.872 172.143ZM143.116 156.7C141.365 158.047 141.038 160.559 142.385 162.31C143.733 164.06 146.244 164.387 147.995 163.04C150.928 160.783 153.748 158.311 156.433 155.626C158.522 153.537 160.482 151.366 162.313 149.124C163.71 147.412 163.455 144.893 161.743 143.496C160.032 142.099 157.512 142.354 156.115 144.065C154.455 146.099 152.675 148.071 150.777 149.969C148.336 152.409 145.776 154.653 143.116 156.7ZM164.848 130.804C163.828 132.764 164.591 135.179 166.55 136.199C168.51 137.218 170.925 136.456 171.945 134.496C174.67 129.257 176.82 123.798 178.394 118.211C178.993 116.085 177.755 113.875 175.628 113.276C173.502 112.677 171.293 113.915 170.694 116.042C169.266 121.108 167.318 126.057 164.848 130.804ZM173.424 100.393C173.267 102.596 174.926 104.51 177.129 104.667C179.333 104.824 181.247 103.165 181.404 100.961C181.819 95.1296 181.642 89.2639 180.874 83.4612C180.584 81.2712 178.573 79.731 176.383 80.0211C174.193 80.3112 172.653 82.3217 172.943 84.5117C173.641 89.7771 173.801 95.1004 173.424 100.393ZM169.268 69.0602C169.995 71.146 172.276 72.247 174.362 71.5194C176.448 70.7917 177.549 68.5109 176.821 66.425C175.862 63.6748 174.758 60.9633 173.511 58.3024C172.574 56.3021 170.192 55.4405 168.192 56.3781C166.191 57.3157 165.33 59.6973 166.267 61.6976C167.398 64.1092 168.398 66.5669 169.268 69.0602Z" fill="#2C1338"/>
</svg>
