<svg width="200" height="200" viewBox="0 0 200 200" fill="none" xmlns="http://www.w3.org/2000/svg">
<path fill-rule="evenodd" clip-rule="evenodd" d="M46.7938 75.5402C36.0351 86.1281 35.3962 105.635 46.3912 119.194C57.3861 132.753 75.0534 134.245 85.8121 123.657L123.94 86.1346C138.324 71.9786 160.764 74.7524 174.101 91.1995C187.438 107.647 187.42 132.523 173.036 146.678L141.699 177.518L145.351 177.644C147.45 177.717 149.08 179.65 148.991 181.961C148.902 184.272 147.128 186.086 145.029 186.013L131.943 185.558C130.911 185.522 129.942 185.026 129.257 184.184C128.572 183.342 128.23 182.226 128.311 181.093L129.334 166.672C129.497 164.365 131.328 162.621 133.423 162.776C135.518 162.931 137.084 164.927 136.92 167.234L136.629 171.334L167.997 140.465C178.755 129.877 179.394 110.37 168.399 96.8109C157.404 83.2522 139.737 81.7604 128.978 92.3483L90.5663 130.151L90.5648 130.149C76.1705 143.989 53.9383 141.144 40.6892 124.805C27.3521 108.358 27.3707 83.4824 41.755 69.3265L74.8643 36.7429L70.438 36.2591C68.3494 36.0308 66.8427 33.9806 67.0727 31.6799C67.3027 29.3792 69.1823 27.6992 71.2709 27.9275L84.2411 29.3452C86.1891 29.5582 87.6554 31.3662 87.629 33.5225L87.4527 47.8819C87.4243 50.1939 85.698 52.063 83.597 52.0566C81.4959 52.0503 79.8157 50.1709 79.8441 47.8589L79.9043 42.9554L46.7938 75.5402ZM176.859 68.117C178.962 68.7141 180.287 70.9679 179.82 73.151L177.735 82.8894C177.268 85.0724 175.185 86.358 173.083 85.7609C170.98 85.1637 169.655 82.9099 170.122 80.7269L172.207 70.9885C172.674 68.8055 174.757 67.5198 176.859 68.117ZM189.29 77.5312C190.853 79.1656 190.92 81.7597 189.438 83.3253L182.872 90.2642C181.391 91.8299 178.923 91.7742 177.36 90.1398C175.796 88.5055 175.73 85.9114 177.212 84.3457L183.777 77.4068C185.259 75.8412 187.727 75.8969 189.29 77.5312ZM197.725 92.7739C198.129 95.0148 196.742 97.0884 194.626 97.4052L186.196 98.668C184.08 98.9848 182.038 97.425 181.634 95.184C181.229 92.9431 182.617 90.8696 184.732 90.5527L193.163 89.29C195.278 88.9731 197.321 90.5329 197.725 92.7739ZM39.6105 144.486C39.0982 146.66 40.3746 148.946 42.4614 149.592C44.5482 150.237 46.6552 148.998 47.1675 146.824L49.4497 137.14C49.962 134.966 48.6857 132.68 46.5989 132.034C44.5121 131.389 42.4051 132.627 41.8928 134.801L39.6105 144.486ZM30.2063 134.068C28.6917 135.599 28.6996 138.196 30.2239 139.87C31.7482 141.544 34.2116 141.66 35.7261 140.13L42.4315 133.355C43.9461 131.825 43.9382 129.227 42.4139 127.554C40.8896 125.88 38.4262 125.763 36.9117 127.293L30.2063 134.068ZM25.3072 119.862C23.1876 120.127 21.755 122.167 22.1075 124.419C22.46 126.672 24.4641 128.283 26.5838 128.019L35.0381 126.965C37.1578 126.701 38.5903 124.661 38.2378 122.408C37.8853 120.156 35.8812 118.544 33.7616 118.808L25.3072 119.862Z" fill="#FFF2ED"/>
<path fill-rule="evenodd" clip-rule="evenodd" d="M39.7939 68.5402C29.0352 79.1281 28.3964 98.6354 39.3913 112.194C50.3862 125.753 68.0535 127.245 78.8122 116.657L116.94 79.1346C131.324 64.9786 153.764 67.7524 167.101 84.1995C180.439 100.647 180.42 125.523 166.036 139.678L134.699 170.518L138.351 170.644C140.45 170.717 142.08 172.65 141.991 174.961C141.902 177.272 140.128 179.086 138.029 179.013L124.943 178.558C123.911 178.522 122.942 178.026 122.257 177.184C121.572 176.342 121.231 175.226 121.311 174.093L122.334 159.672C122.498 157.365 124.329 155.621 126.423 155.776C128.518 155.931 130.084 157.927 129.92 160.234L129.629 164.334L160.997 133.465C171.756 122.877 172.394 103.37 161.399 89.8109C150.405 76.2522 132.737 74.7604 121.979 85.3483L83.5664 123.151L83.5649 123.149C69.1706 136.989 46.9384 134.144 33.6894 117.805C20.3522 101.358 20.3708 76.4824 34.7551 62.3265L67.8644 29.7429L63.4382 29.2591C61.3496 29.0308 59.8429 26.9806 60.0729 24.6799C60.3028 22.3792 62.1825 20.6992 64.2711 20.9275L77.2413 22.3452C79.1892 22.5582 80.6556 24.3662 80.6291 26.5225L80.4528 40.8819C80.4244 43.1938 78.6982 45.063 76.5971 45.0566C74.4961 45.0503 72.8158 43.1709 72.8442 40.8589L72.9044 35.9554L39.7939 68.5402ZM169.859 61.117C171.962 61.7141 173.287 63.9679 172.82 66.151L170.736 75.8894C170.268 78.0724 168.185 79.358 166.083 78.7609C163.981 78.1637 162.655 75.9099 163.122 73.7269L165.207 63.9885C165.674 61.8055 167.757 60.5198 169.859 61.117ZM182.29 70.5312C183.853 72.1656 183.92 74.7597 182.438 76.3253L175.872 83.2642C174.391 84.8298 171.923 84.7742 170.36 83.1398C168.796 81.5055 168.73 78.9114 170.212 77.3457L176.777 70.4068C178.259 68.8412 180.727 68.8969 182.29 70.5312ZM190.725 85.7739C191.129 88.0148 189.742 90.0883 187.626 90.4052L179.196 91.668C177.08 91.9848 175.038 90.425 174.634 88.184C174.23 85.9431 175.617 83.8695 177.732 83.5527L186.163 82.2899C188.278 81.9731 190.321 83.5329 190.725 85.7739ZM32.6107 137.486C32.0984 139.66 33.3747 141.946 35.4615 142.592C37.5483 143.237 39.6553 141.998 40.1677 139.824L42.4499 130.14C42.9622 127.966 41.6858 125.68 39.599 125.034C37.5122 124.389 35.4052 125.627 34.8929 127.801L32.6107 137.486ZM23.2064 127.068C21.6919 128.599 21.6998 131.196 23.2241 132.87C24.7483 134.544 27.2118 134.66 28.7263 133.13L35.4317 126.355C36.9462 124.825 36.9383 122.227 35.4141 120.554C33.8898 118.88 31.4264 118.763 29.9118 120.293L23.2064 127.068ZM18.3074 112.862C16.1877 113.127 14.7552 115.167 15.1077 117.419C15.4602 119.672 17.4643 121.283 19.5839 121.019L28.0382 119.965C30.1579 119.701 31.5905 117.661 31.238 115.408C30.8854 113.156 28.8814 111.544 26.7617 111.808L18.3074 112.862Z" fill="#2C1338"/>
</svg>
