<svg width="200" height="200" viewBox="0 0 200 200" fill="none" xmlns="http://www.w3.org/2000/svg">
<path fill-rule="evenodd" clip-rule="evenodd" d="M63.1484 36H43.8968C39.4785 36 35.8968 39.5817 35.8968 44V63.4286H29.0839C24.067 63.4286 20 67.522 20 72.5714C20 77.6209 24.067 81.7143 29.0839 81.7143L35.8968 81.7143V109.143H63.1484V100L63.1484 100C63.1484 94.9505 67.2154 90.8571 72.2323 90.8571C77.2492 90.8571 81.3162 94.9505 81.3162 100L81.3162 100.015V109.143H108.568V81.7143H115.381C120.398 81.7143 124.465 77.6209 124.465 72.5714C124.465 67.522 120.398 63.4286 115.381 63.4286H108.568V36H81.3161V45.1283L81.3162 45.143C81.3162 50.1924 77.2492 54.2858 72.2323 54.2858C67.2154 54.2858 63.1484 50.1924 63.1484 45.143V45.1428L63.1484 36Z" fill="#FFF2ED"/>
<path fill-rule="evenodd" clip-rule="evenodd" d="M35.8969 152.571V172C35.8969 176.418 39.4787 180 43.8969 180H63.1486V186.857C63.1486 191.907 67.2156 196 72.2324 196C77.2493 196 81.3163 191.907 81.3163 186.857V180H108.568V152.571H99.506L99.4839 152.571C94.467 152.571 90.4001 148.478 90.4001 143.429C90.4001 138.379 94.467 134.286 99.4839 134.286H99.484L108.568 134.286V106.857H81.3163V100C81.3163 94.9506 77.2493 90.8572 72.2324 90.8572C67.2156 90.8572 63.1486 94.9506 63.1486 100V106.857H35.8969V134.286H44.9807C49.9976 134.286 54.0646 138.379 54.0646 143.429C54.0646 148.478 49.9976 152.571 44.9807 152.571L44.9586 152.571H35.8969Z" fill="#FFF2ED"/>
<path fill-rule="evenodd" clip-rule="evenodd" d="M105.432 81.7144V109.143H132.684V116C132.684 121.05 136.751 125.143 141.768 125.143C146.784 125.143 150.851 121.05 150.851 116V109.143H178.103V81.7144H169.019C164.002 81.7143 159.935 77.6209 159.935 72.5715C159.935 67.522 164.002 63.4287 169.019 63.4287L169.036 63.4287H178.103V44C178.103 39.5817 174.521 36 170.103 36H150.851V29.1429C150.851 24.0935 146.784 20.0001 141.768 20.0001C136.751 20.0001 132.684 24.0935 132.684 29.1429V36H105.432V63.4287H114.499L114.516 63.4287C119.533 63.4287 123.6 67.5221 123.6 72.5715C123.6 77.621 119.533 81.7144 114.516 81.7144H105.432Z" fill="#FFF2ED"/>
<path fill-rule="evenodd" clip-rule="evenodd" d="M132.684 106.857H105.432V134.286H98.6195C93.6026 134.286 89.5356 138.379 89.5356 143.429C89.5356 148.478 93.6026 152.571 98.6195 152.571H105.432V180H132.684V170.871L132.684 170.857C132.684 165.808 136.751 161.714 141.768 161.714C146.785 161.714 150.852 165.808 150.852 170.857L150.852 170.857V180H170.103C174.522 180 178.103 176.418 178.103 172V152.571H184.916C189.933 152.571 194 148.478 194 143.429C194 138.379 189.933 134.286 184.916 134.286H178.103V106.857H150.852V116L150.852 116C150.852 121.049 146.785 125.143 141.768 125.143C136.751 125.143 132.684 121.049 132.684 116L132.684 115.986V106.857Z" fill="#FFF2ED"/>
<path d="M55.1484 28L59.1484 28L59.1484 24H55.1484V28ZM27.8968 55.4285V59.4285H31.8968V55.4285H27.8968ZM12 64.5714H8H12ZM21.0839 73.7143L21.0839 69.7143H21.0839V73.7143ZM27.8968 73.7143H31.8968V69.7143L27.8968 69.7143L27.8968 73.7143ZM27.8968 101.143H23.8968V105.143H27.8968V101.143ZM55.1484 101.143V105.143H59.1484V101.143H55.1484ZM55.1484 92.0001L51.1526 91.8185L51.1484 91.9093V92.0001H55.1484ZM55.1484 92L59.1443 92.1816L59.1484 92.0908V92H55.1484ZM73.3162 92L77.3162 92.0041V92H73.3162ZM73.3162 92.0146L69.3162 92.0105V92.0146H73.3162ZM73.3162 101.143H69.3162V105.143H73.3162V101.143ZM100.568 101.143V105.143H104.568V101.143H100.568ZM100.568 73.7143V69.7143H96.5678V73.7143H100.568ZM100.568 55.4285H96.5678V59.4285H100.568V55.4285ZM100.568 28H104.568V24H100.568V28ZM73.3162 28V24H69.3162V28H73.3162ZM73.3162 37.1283H69.3162V37.1303L73.3162 37.1283ZM73.3162 37.1429H77.3162L77.3162 37.1409L73.3162 37.1429ZM55.1484 37.1428H59.1484V37.1428L55.1484 37.1428ZM35.8968 32H55.1484V24H35.8968V32ZM31.8968 36C31.8968 33.7909 33.6877 32 35.8968 32V24C29.2694 24 23.8968 29.3726 23.8968 36H31.8968ZM31.8968 55.4285V36H23.8968V55.4285H31.8968ZM21.0839 59.4285H27.8968V51.4285H21.0839V59.4285ZM16 64.5714C16 61.7066 18.3005 59.4285 21.0839 59.4285V51.4285C13.8335 51.4285 8 57.3372 8 64.5714H16ZM21.0839 69.7143C18.3005 69.7143 16 67.4362 16 64.5714H8C8 71.8055 13.8335 77.7143 21.0839 77.7143V69.7143ZM27.8968 69.7143L21.0839 69.7143L21.0839 77.7143L27.8968 77.7143L27.8968 69.7143ZM31.8968 101.143V73.7143H23.8968V101.143H31.8968ZM55.1484 97.1429H27.8968V105.143H55.1484V97.1429ZM51.1484 92.0001V101.143H59.1484V92.0001H51.1484ZM51.1526 91.8183L51.1526 91.8185L59.1443 92.1818L59.1443 92.1816L51.1526 91.8183ZM64.2323 78.8571C56.9819 78.8571 51.1484 84.7658 51.1484 92H59.1484C59.1484 89.1352 61.4489 86.8571 64.2323 86.8571V78.8571ZM77.3162 92C77.3162 84.7658 71.4827 78.8571 64.2323 78.8571V86.8571C67.0157 86.8571 69.3162 89.1352 69.3162 92H77.3162ZM77.3162 92.0188L77.3162 92.0041L69.3162 91.9958L69.3162 92.0105L77.3162 92.0188ZM77.3162 101.143V92.0146H69.3162V101.143H77.3162ZM100.568 97.1429H73.3162V105.143H100.568V97.1429ZM96.5678 73.7143V101.143H104.568V73.7143H96.5678ZM107.381 69.7143H100.568V77.7143H107.381V69.7143ZM112.465 64.5714C112.465 67.4362 110.164 69.7143 107.381 69.7143V77.7143C114.631 77.7143 120.465 71.8055 120.465 64.5714H112.465ZM107.381 59.4285C110.164 59.4285 112.465 61.7066 112.465 64.5714H120.465C120.465 57.3372 114.631 51.4285 107.381 51.4285V59.4285ZM100.568 59.4285H107.381V51.4285H100.568V59.4285ZM96.5678 28V55.4285H104.568V28H96.5678ZM73.3162 32H100.568V24H73.3162V32ZM77.3162 37.1283V28H69.3162V37.1283H77.3162ZM77.3162 37.1409L77.3162 37.1262L69.3162 37.1303L69.3162 37.145L77.3162 37.1409ZM64.2323 50.2858C71.4827 50.2858 77.3162 44.3771 77.3162 37.1429H69.3162C69.3162 40.0077 67.0157 42.2858 64.2323 42.2858V50.2858ZM51.1484 37.1429C51.1484 44.3771 56.9819 50.2858 64.2323 50.2858V42.2858C61.4489 42.2858 59.1484 40.0077 59.1484 37.1429H51.1484ZM51.1484 37.1428V37.1429H59.1484V37.1428H51.1484ZM51.1484 28L51.1484 37.1428L59.1484 37.1428L59.1484 28L51.1484 28Z" fill="#2C1338"/>
<path d="M27.897 144.571V140.571H23.897V144.571H27.897ZM55.1486 172H59.1486V168H55.1486V172ZM64.2325 188L64.2325 192L64.2325 188ZM73.3164 172V168H69.3164V172H73.3164ZM100.568 172V176H104.568V172H100.568ZM100.568 144.571H104.568V140.571H100.568V144.571ZM91.5061 144.571V140.571L91.5006 140.571L91.5061 144.571ZM91.484 144.571V148.571L91.4895 148.571L91.484 144.571ZM91.4841 126.286V130.286H91.4841L91.4841 126.286ZM100.568 126.286L100.568 130.286L104.568 130.286V126.286H100.568ZM100.568 98.8571H104.568V94.8571H100.568V98.8571ZM73.3164 98.8571H69.3164V102.857H73.3164V98.8571ZM55.1486 98.8571L55.1486 102.857H59.1486L59.1486 98.8571H55.1486ZM27.897 98.8571V94.8571H23.897V98.8571H27.897ZM27.897 126.286H23.897V130.286H27.897V126.286ZM36.9808 126.286L36.9808 122.286H36.9808V126.286ZM36.9808 144.571L36.9766 148.571H36.9808V144.571ZM36.9587 144.571L36.9628 140.571H36.9587V144.571ZM31.897 164L31.897 144.571H23.897L23.897 164H31.897ZM35.897 168C33.6878 168 31.897 166.209 31.897 164H23.897C23.897 170.627 29.2696 176 35.897 176V168ZM55.1486 168H35.897V176H55.1486V168ZM59.1486 178.857V172H51.1486V178.857H59.1486ZM64.2325 184C61.4491 184 59.1486 181.722 59.1486 178.857H51.1486C51.1486 186.091 56.9821 192 64.2325 192L64.2325 184ZM69.3164 178.857C69.3164 181.722 67.0159 184 64.2325 184L64.2325 192C71.4829 192 77.3164 186.091 77.3164 178.857H69.3164ZM69.3164 172V178.857H77.3164V172H69.3164ZM100.568 168H73.3164V176H100.568V168ZM96.5679 144.571V172H104.568V144.571H96.5679ZM91.5061 148.571H100.568V140.571H91.5061V148.571ZM91.4895 148.571L91.5116 148.571L91.5006 140.571L91.4785 140.571L91.4895 148.571ZM78.4001 135.428C78.4001 142.663 84.2336 148.571 91.484 148.571V140.571C88.7006 140.571 86.4001 138.293 86.4001 135.428H78.4001ZM91.484 122.286C84.2336 122.286 78.4001 128.194 78.4001 135.428H86.4001C86.4001 132.564 88.7006 130.286 91.484 130.286V122.286ZM91.4841 122.286H91.484V130.286H91.4841V122.286ZM100.568 122.286L91.4841 122.286L91.4841 130.286L100.568 130.286L100.568 122.286ZM96.5679 98.8571V126.286H104.568V98.8571H96.5679ZM73.3164 102.857H100.568V94.8571H73.3164V102.857ZM69.3164 92V98.8571H77.3164V92H69.3164ZM64.2325 86.8571C67.0159 86.8571 69.3164 89.1352 69.3164 92H77.3164C77.3164 84.7658 71.4829 78.8571 64.2325 78.8571V86.8571ZM59.1486 92C59.1486 89.1352 61.4491 86.8571 64.2325 86.8571V78.8571C56.9821 78.8571 51.1486 84.7658 51.1486 92H59.1486ZM59.1486 98.8571V92H51.1486V98.8571H59.1486ZM27.897 102.857H55.1486L55.1486 94.8571H27.897L27.897 102.857ZM31.897 126.286L31.897 98.8571H23.897L23.897 126.286H31.897ZM36.9808 122.286H27.897V130.286H36.9808V122.286ZM50.0647 135.428C50.0647 128.194 44.2312 122.286 36.9808 122.286L36.9808 130.286C39.7642 130.286 42.0647 132.564 42.0647 135.428H50.0647ZM36.9808 148.571C44.2312 148.571 50.0647 142.663 50.0647 135.428H42.0647C42.0647 138.293 39.7642 140.571 36.9808 140.571V148.571ZM36.9545 148.571L36.9766 148.571L36.9849 140.571L36.9628 140.571L36.9545 148.571ZM27.897 148.571H36.9587V140.571H27.897V148.571Z" fill="#2C1338"/>
<path d="M99.4321 101.143H95.4321V105.143H99.4321V101.143ZM99.4321 73.7141V69.7141H95.4321V73.7141H99.4321ZM126.684 101.143H130.684V97.1426H126.684V101.143ZM135.768 117.143V121.143V117.143ZM144.851 101.143V97.1426H140.851V101.143H144.851ZM172.103 101.143V105.143H176.103V101.143H172.103ZM172.103 73.7141H176.103V69.7141H172.103V73.7141ZM163.019 73.7141L163.019 77.7141H163.019V73.7141ZM163.019 55.4284L163.023 51.4284H163.019V55.4284ZM163.036 55.4284L163.032 59.4284H163.036V55.4284ZM172.103 55.4284V59.4284H176.103V55.4284H172.103ZM144.851 27.9998H140.851V31.9998H144.851V27.9998ZM126.684 27.9998V31.9998H130.684V27.9998H126.684ZM99.4321 27.9998V23.9998H95.4321V27.9998H99.4321ZM99.4321 55.4284H95.4321V59.4284H99.4321V55.4284ZM108.499 55.4284V59.4284L108.503 59.4284L108.499 55.4284ZM108.516 55.4284V51.4284L108.512 51.4284L108.516 55.4284ZM108.516 73.7141V77.7141H108.516L108.516 73.7141ZM103.432 101.143V73.7141H95.4321V101.143H103.432ZM126.684 97.1426H99.4321V105.143H126.684V97.1426ZM130.684 108V101.143H122.684V108H130.684ZM135.768 113.143C132.984 113.143 130.684 110.865 130.684 108H122.684C122.684 115.234 128.517 121.143 135.768 121.143L135.768 113.143ZM140.851 108C140.851 110.865 138.551 113.143 135.768 113.143L135.768 121.143C143.018 121.143 148.851 115.234 148.851 108H140.851ZM140.851 101.143V108H148.851V101.143H140.851ZM172.103 97.1426H144.851V105.143H172.103V97.1426ZM168.103 73.7141V101.143H176.103V73.7141H168.103ZM163.019 77.7141H172.103V69.7141H163.019V77.7141ZM149.935 64.5713C149.935 71.8054 155.769 77.714 163.019 77.7141L163.019 69.7141C160.236 69.7141 157.935 67.436 157.935 64.5713H149.935ZM163.019 51.4284C155.769 51.4284 149.935 57.3371 149.935 64.5713H157.935C157.935 61.7065 160.236 59.4284 163.019 59.4284V51.4284ZM163.04 51.4284L163.023 51.4284L163.016 59.4284L163.032 59.4284L163.04 51.4284ZM172.103 51.4284H163.036V59.4284H172.103V51.4284ZM168.103 35.9998V55.4284H176.103V35.9998H168.103ZM164.103 31.9998C166.312 31.9998 168.103 33.7906 168.103 35.9998H176.103C176.103 29.3723 170.731 23.9998 164.103 23.9998V31.9998ZM144.851 31.9998H164.103V23.9998H144.851V31.9998ZM140.851 21.1427V27.9998H148.851V21.1427H140.851ZM135.768 15.9998C138.551 15.9998 140.851 18.2779 140.851 21.1427H148.851C148.851 13.9085 143.018 7.9998 135.768 7.9998V15.9998ZM130.684 21.1427C130.684 18.2779 132.984 15.9998 135.768 15.9998V7.9998C128.517 7.9998 122.684 13.9085 122.684 21.1427H130.684ZM130.684 27.9998V21.1427H122.684V27.9998H130.684ZM99.4321 31.9998H126.684V23.9998H99.4321V31.9998ZM103.432 55.4284V27.9998H95.4321V55.4284H103.432ZM108.499 51.4284H99.4321V59.4284H108.499V51.4284ZM108.512 51.4284L108.496 51.4284L108.503 59.4284L108.52 59.4284L108.512 51.4284ZM121.6 64.5713C121.6 57.3371 115.766 51.4284 108.516 51.4284V59.4284C111.299 59.4284 113.6 61.7065 113.6 64.5713H121.6ZM108.516 77.7141C115.766 77.7141 121.6 71.8054 121.6 64.5713H113.6C113.6 67.436 111.299 69.7141 108.516 69.7141L108.516 77.7141ZM99.4321 77.7141H108.516V69.7141H99.4321V77.7141Z" fill="#2C1338"/>
<path d="M99.4325 98.8572V94.8572H95.4325V98.8572H99.4325ZM126.684 98.8572H130.684V94.8572H126.684V98.8572ZM99.4325 126.286V130.286H103.432V126.286H99.4325ZM83.5356 135.429H87.5356H83.5356ZM92.6195 144.572L92.6195 140.572H92.6195V144.572ZM99.4325 144.572H103.432V140.572L99.4325 140.572L99.4325 144.572ZM99.4325 172H95.4325V176H99.4325V172ZM126.684 172V176H130.684V172H126.684ZM126.684 162.871H130.684V162.869L126.684 162.871ZM126.684 162.857H122.684V162.859L126.684 162.857ZM144.852 162.857H140.852V163.106L140.883 163.353L144.852 162.857ZM144.852 162.857H148.852V162.608L148.821 162.361L144.852 162.857ZM144.852 172H140.852V176H144.852V172ZM172.103 144.572V140.572L168.103 140.572V144.572H172.103ZM178.916 144.572V148.572V144.572ZM172.103 126.286H168.103V130.286H172.103V126.286ZM172.103 98.8572H176.103V94.8572H172.103V98.8572ZM144.852 98.8572V94.8572H140.852V98.8572H144.852ZM144.852 108L148.848 108.18L148.852 108.09V108H144.852ZM144.852 108L140.856 107.82L140.852 107.91V108H144.852ZM126.684 108L122.684 107.997V108H126.684ZM126.684 107.986L130.684 107.989V107.986H126.684ZM99.4325 102.857H126.684V94.8572H99.4325V102.857ZM103.432 126.286V98.8572H95.4325V126.286H103.432ZM92.6195 130.286H99.4325V122.286H92.6195V130.286ZM87.5356 135.429C87.5356 132.564 89.8361 130.286 92.6195 130.286V122.286C85.3691 122.286 79.5356 128.195 79.5356 135.429H87.5356ZM92.6195 140.572C89.8361 140.572 87.5356 138.293 87.5356 135.429H79.5356C79.5356 142.663 85.3691 148.572 92.6195 148.572V140.572ZM99.4325 140.572L92.6195 140.572L92.6195 148.572L99.4325 148.572L99.4325 140.572ZM103.432 172V144.572H95.4325V172H103.432ZM126.684 168H99.4325V176H126.684V168ZM122.684 162.871V172H130.684V162.871H122.684ZM122.684 162.859L122.684 162.873L130.684 162.869L130.684 162.855L122.684 162.859ZM135.768 149.714C128.518 149.714 122.684 155.623 122.684 162.857H130.684C130.684 159.992 132.985 157.714 135.768 157.714V149.714ZM148.852 162.857C148.852 155.623 143.018 149.714 135.768 149.714V157.714C138.551 157.714 140.852 159.992 140.852 162.857H148.852ZM148.821 162.361L148.821 162.361L140.883 163.353L140.883 163.353L148.821 162.361ZM148.852 172V162.857H140.852V172H148.852ZM164.103 168H144.852V176H164.103V168ZM168.103 164C168.103 166.209 166.313 168 164.103 168V176C170.731 176 176.103 170.627 176.103 164H168.103ZM168.103 144.572V164H176.103V144.572H168.103ZM178.916 140.572L172.103 140.572V148.572L178.916 148.572V140.572ZM184 135.429C184 138.293 181.7 140.572 178.916 140.572V148.572C186.167 148.572 192 142.663 192 135.429H184ZM178.916 130.286C181.7 130.286 184 132.564 184 135.429H192C192 128.195 186.167 122.286 178.916 122.286V130.286ZM172.103 130.286H178.916V122.286H172.103V130.286ZM168.103 98.8572V126.286H176.103V98.8572H168.103ZM144.852 102.857H172.103V94.8572H144.852V102.857ZM148.852 108V98.8572H140.852V108H148.852ZM148.848 108.18L148.848 108.18L140.856 107.82L140.856 107.82L148.848 108.18ZM135.768 121.143C143.018 121.143 148.852 115.234 148.852 108H140.852C140.852 110.865 138.551 113.143 135.768 113.143V121.143ZM122.684 108C122.684 115.234 128.518 121.143 135.768 121.143V113.143C132.985 113.143 130.684 110.865 130.684 108H122.684ZM122.684 107.983L122.684 107.997L130.684 108.003L130.684 107.989L122.684 107.983ZM122.684 98.8572V107.986H130.684V98.8572H122.684Z" fill="#2C1338"/>
</svg>
