<svg width="200" height="200" viewBox="0 0 200 200" fill="none" xmlns="http://www.w3.org/2000/svg">
<path d="M114.956 25.439H62.2075C60.2112 25.439 58.5204 26.9109 58.2456 28.8883L47.143 108.764C46.8161 111.117 48.5989 113.234 50.9726 113.313L113.597 115.387L99.8582 166.998C98.6948 171.368 104.541 174.009 107.051 170.246L164.32 84.406C166.093 81.7478 164.188 78.1861 160.992 78.1861H100.295L118.684 30.8884C119.703 28.2663 117.769 25.439 114.956 25.439Z" fill="#FFF2ED"/>
<path d="M113.803 18.439H51.725L39.5312 106.166L106.597 108.387L86.6437 183.343L161.469 71.1861H93.2948L113.803 18.439Z" stroke="#2C1338" stroke-width="8" stroke-linecap="round" stroke-linejoin="round"/>
<path d="M168.81 63.7384L170.895 54M174.923 69.2352L181.489 62.2963M180.345 76.5406L188.776 75.2778" stroke="#FFF2ED" stroke-width="8" stroke-linecap="round" stroke-linejoin="round"/>
<path d="M43.1811 126.934L41.0967 136.672M37.068 121.437L30.5022 128.376M31.646 114.131L23.2153 115.394" stroke="#FFF2ED" stroke-width="8" stroke-linecap="round" stroke-linejoin="round"/>
<path d="M161.81 56.7384L163.895 47M167.923 62.2352L174.489 55.2963M173.345 69.5406L181.776 68.2778" stroke="#2C1338" stroke-width="8" stroke-linecap="round" stroke-linejoin="round"/>
<path d="M36.1806 119.934L34.0962 129.672M30.0675 114.437L23.5017 121.376M24.6456 107.132L16.2148 108.394" stroke="#2C1338" stroke-width="8" stroke-linecap="round" stroke-linejoin="round"/>
</svg>
